<?xml version="1.0" encoding="utf-8"?>
<!-- Generator: Adobe Illustrator 23.0.3, SVG Export Plug-In . SVG Version: 6.00 Build 0)  -->
<svg version="1.1" id="Layer_1" xmlns:svg="http://www.w3.org/2000/svg"
	 xmlns="http://www.w3.org/2000/svg" xmlns:xlink="http://www.w3.org/1999/xlink" x="0px" y="0px" viewBox="0 0 95.4 30"
	 style="enable-background:new 0 0 95.4 30;" xml:space="preserve">
<style type="text/css">
	.st0{fill:#DA291C;}
	.st1{fill:#FFFFFF;}
</style>
<rect class="st0" width="95.4" height="30"/>
<g>
	<title>Avaya</title>
	<g id="svg_1">
		<g id="g8764" transform="matrix(0.5652039516090643,0,0,-0.5652039516090643,-85.9081104125128,383.37812071407575) ">
			<g id="g4336">
				<path id="path4338" class="st1" d="M281.9,649.6h9.5l1.5-3.8h-12.9l-2.1-4.4h-5.7l14.1,28.9h3.9l14.1-28.9h-5.7l-10.4,22.3
					L281.9,649.6z"/>
			</g>
			<g id="g4340">
				<path id="path4342" class="st1" d="M174.2,649.6h9.5l1.5-3.8h-12.9l-2.1-4.4h-5.7l14.1,28.9h3.9l14.1-28.9h-5.7l-10.4,22.3
					L174.2,649.6L174.2,649.6z"/>
			</g>
			<g id="g4344">
				<path id="path4346" class="st1" d="M227.8,649.6h9.5l1.5-3.8H226l-2.1-4.4h-5.7l14.1,28.9h3.9l14.1-28.9h-5.7l-10.4,22.3
					L227.8,649.6z"/>
			</g>
			<g id="g4348">
				<path id="path4350" class="st1" d="M191.5,670.3l14.1-28.9h0.2h3.5h0.2l14.1,28.9H218l-10.4-22.7l-10.4,22.7
					C197.2,670.3,191.5,670.3,191.5,670.3z"/>
			</g>
			<g id="g4352">
				<path id="path4354" class="st1" d="M258.3,630.5l19.5,39.8h-5.7l-10.8-23.2l-10,23.2h-5.7l12.8-28.9l-5.6-10.9H258.3
					L258.3,630.5z"/>
			</g>
		</g>
	</g>
</g>
</svg>
